<svg xmlns="http://www.w3.org/2000/svg" width="130" height="134" viewBox="0 0 130 134" fill="none"><g clip-path="url(#clip0_431_887)"><path d="M62.109 25.1382C63.383 27.3515 64.516 29.6447 65.5012 32.0038C65.9614 33.1175 66.39 34.2445 66.7871 35.3848C66.794 35.4041 66.8066 35.4207 66.8232 35.4324C66.8397 35.4442 66.8595 35.4505 66.8797 35.4505C66.9 35.4505 66.9198 35.4442 66.9363 35.4324C66.9529 35.4207 66.9655 35.4041 66.9724 35.3848C67.7001 33.3842 68.5376 31.4262 69.4811 29.5199C69.5836 29.3166 69.6901 29.1212 69.7966 28.9139C69.8591 28.7909 69.8746 28.6489 69.84 28.5152C69.5521 27.3789 69.2405 26.2505 68.8934 25.1382C67.9666 22.1741 66.833 19.2803 65.5012 16.4784C62.6606 10.5067 58.9541 4.99706 54.5041 0.131587C54.4422 0.0621641 54.3581 0.0169413 54.2666 0.00382348C54.175 -0.0092943 54.0818 0.01053 54.0032 0.059824C51.0931 1.83386 48.4385 4.00458 46.1144 6.51082C46.0756 6.55206 46.046 6.60122 46.0276 6.65498C46.0092 6.70875 46.0023 6.76588 46.0076 6.82253C46.0128 6.87918 46.03 6.93404 46.0579 6.98343C46.0859 7.03282 46.1239 7.07559 46.1696 7.10887C52.6358 11.9656 58.0585 18.0994 62.109 25.1382Z" fill="#1D3D6F"></path><path d="M37.7455 22.7779C37.692 22.7494 37.6329 22.7338 37.5726 22.7321C37.5122 22.7305 37.4523 22.7428 37.3975 22.7682C37.3426 22.7937 37.2942 22.8315 37.2561 22.8788C37.2179 22.9261 37.191 22.9816 37.1775 23.041C35.9872 27.9006 35.774 32.9522 36.5503 37.8966C36.5647 37.987 36.6094 38.0696 36.6769 38.1306C36.7444 38.1916 36.8306 38.2272 36.9211 38.2315C41.1329 38.4915 45.2315 39.7141 48.908 41.8074C52.5845 43.9007 55.7432 46.81 58.146 50.3162C58.1602 50.3419 58.1832 50.3613 58.2106 50.3709C58.2381 50.3805 58.2681 50.3796 58.2949 50.3682C58.3218 50.3569 58.3435 50.336 58.356 50.3095C58.3686 50.283 58.371 50.2527 58.3629 50.2245C57.2018 44.3721 54.7433 38.8619 51.1723 34.108C47.6013 29.3542 43.0107 25.4804 37.7455 22.7779Z" fill="#1D3D6F"></path><path d="M93.823 23.041C93.8095 22.9816 93.7826 22.9261 93.7444 22.8788C93.7063 22.8315 93.6579 22.7937 93.6031 22.7682C93.5482 22.7428 93.4883 22.7305 93.4279 22.7321C93.3676 22.7338 93.3085 22.7494 93.255 22.7779C87.9898 25.4809 83.399 29.3547 79.8274 34.1084C76.2558 38.8622 73.7963 44.3721 72.6336 50.2245C72.6289 50.2522 72.6336 50.2808 72.6471 50.3054C72.6605 50.33 72.6819 50.3493 72.7077 50.36C72.7334 50.3707 72.762 50.3722 72.7887 50.3642C72.8154 50.3563 72.8386 50.3393 72.8545 50.3162C75.2567 46.809 78.4151 43.8988 82.0917 41.8048C85.7683 39.7108 89.8672 38.4876 94.0794 38.2276C94.1699 38.2232 94.2561 38.1876 94.3236 38.1266C94.3911 38.0656 94.4358 37.983 94.4502 37.8926C94.7516 35.9539 94.9032 33.9943 94.9038 32.0317C94.9055 29.0016 94.5426 25.9825 93.823 23.041Z" fill="#1D3D6F"></path><path d="M92.3559 19.4208C92.4459 19.3781 92.5166 19.3026 92.5539 19.2095C92.5912 19.1163 92.5923 19.0124 92.557 18.9184C91.3439 15.6534 89.68 12.5781 87.6147 9.78415C87.5839 9.74139 87.545 9.70526 87.5002 9.67785C87.4554 9.65045 87.4057 9.63232 87.354 9.62453C87.3022 9.61673 87.2494 9.61944 87.1987 9.63247C87.148 9.6455 87.1003 9.66859 87.0585 9.70042C77.8812 16.5067 70.9795 25.984 67.2773 36.864C66.5571 38.9869 65.9644 41.1518 65.5023 43.3469C65.0403 41.1518 64.4475 38.9869 63.7273 36.864C64.1218 35.628 64.553 34.408 65.0211 33.2039C65.0412 33.1553 65.0515 33.1031 65.0515 33.0504C65.0515 32.9977 65.0412 32.9455 65.0211 32.8969L64.7805 32.3148C63.9358 30.296 62.9811 28.326 61.9208 26.414C61.9104 26.397 61.8955 26.3834 61.8777 26.3748C61.8599 26.3662 61.84 26.363 61.8204 26.3655C61.8009 26.368 61.7825 26.3762 61.7674 26.389C61.7523 26.4019 61.7412 26.4189 61.7354 26.4379C61.4041 27.5742 61.0925 28.7185 60.8242 29.8827C56.8513 21.9053 51.0694 14.99 43.95 9.70042C43.9081 9.66796 43.8602 9.64435 43.8091 9.63096C43.7579 9.61758 43.7047 9.61471 43.6525 9.62251C43.6002 9.63032 43.5501 9.64866 43.505 9.67642C43.4599 9.70419 43.4208 9.74082 43.3899 9.78415C41.3246 12.5788 39.6594 15.6538 38.4436 18.9184C38.4084 19.0124 38.4095 19.1163 38.4468 19.2095C38.4841 19.3026 38.5548 19.3781 38.6448 19.4208C47.871 23.978 55.1558 31.7536 59.1557 41.3135C59.3885 41.8757 59.6094 42.4418 59.8224 43.012C60.3877 44.4473 60.9136 45.9092 61.4001 47.3977C62.8943 52.0108 63.938 56.7608 64.5162 61.5795C64.5385 61.811 64.6368 62.0283 64.7955 62.1967C64.9542 62.365 65.1642 62.4748 65.3919 62.5085C65.6517 62.5377 65.9123 62.4619 66.117 62.2975C66.3217 62.1332 66.4538 61.8937 66.4845 61.6314C67.0631 56.7954 68.1081 52.0281 69.6045 47.3977C70.0739 45.9464 70.5827 44.5111 71.1349 43.1037C71.3558 42.5016 71.5846 41.9076 71.8291 41.3215C75.8302 31.755 83.1215 23.9757 92.3559 19.4208Z" fill="#1D3D6F"></path><path d="M69.5368 24.0497C73.5212 17.4698 78.7196 11.7253 84.849 7.12877C84.895 7.0958 84.9334 7.05327 84.9617 7.00403C84.99 6.9548 85.0076 6.90001 85.0132 6.84334C85.0188 6.78668 85.0123 6.72946 84.9942 6.67553C84.9761 6.62161 84.9468 6.57222 84.9082 6.53071C82.5832 4.02541 79.9288 1.85479 77.0194 0.0797215C76.9408 0.0304274 76.8476 0.0106032 76.756 0.0237209C76.6645 0.0368387 76.5804 0.0820616 76.5184 0.151485C72.3422 4.72056 68.821 9.85943 66.0578 15.4178C66.0295 15.4739 66.0146 15.5361 66.0146 15.5992C66.0146 15.6623 66.0295 15.7244 66.0578 15.7806L66.2353 16.1554C67.4497 18.7161 68.5036 21.3514 69.3909 24.0457C69.3998 24.0562 69.4109 24.0647 69.4233 24.0707C69.4357 24.0767 69.4492 24.08 69.463 24.0803C69.4767 24.0807 69.4904 24.0782 69.5031 24.0729C69.5158 24.0676 69.5273 24.0597 69.5368 24.0497Z" fill="#1D3D6F"></path><path d="M74.7364 74.1107H67.6128V75.5182H74.2315V77.6991H67.6128V79.1224H74.7364V81.3113H65.4473V71.9258H74.7364V74.1107Z" fill="#1D3D6F"></path><path d="M52.1934 74.1107H45.0698V75.5182H51.6964V77.6991H45.0698V79.1224H52.1934V81.3113H42.9043V71.9258H52.1934V74.1107Z" fill="#1D3D6F"></path><path d="M98.0002 78.3369C98.0087 78.7342 97.9349 79.1289 97.7834 79.4956C97.6319 79.8622 97.4061 80.1928 97.1206 80.466C96.8392 80.7431 96.5058 80.9607 96.14 81.1058C95.7742 81.251 95.3835 81.3208 94.9906 81.3112H87.6816V71.9258H94.9906C95.3845 71.9185 95.7759 71.991 96.1417 72.1389C96.5075 72.2868 96.8403 72.5071 97.1206 72.787C97.4038 73.0577 97.6283 73.385 97.7797 73.7481C97.9311 74.1112 98.0062 74.5021 98.0002 74.8961V78.3369ZM89.9181 74.1107V79.1224H94.9906C95.5429 79.1224 95.819 78.8592 95.819 78.325V74.9081C95.819 74.3858 95.5429 74.1107 94.9906 74.1107H89.9181Z" fill="#1D3D6F"></path><path d="M41.3779 81.3113H33V71.9258H35.1655V79.1224H41.3779V81.3113Z" fill="#1D3D6F"></path><path d="M86.1543 81.3113H83.9967L78.4272 74.9839V81.3113H76.2617V71.9258H78.4272L83.9967 78.1974V71.9258H86.1543V81.3113Z" fill="#1D3D6F"></path><path d="M63.9237 81.3113H56.7448C56.3509 81.3206 55.959 81.2506 55.592 81.1055C55.225 80.9604 54.8901 80.7431 54.607 80.466C54.3189 80.1945 54.0908 79.8644 53.9379 79.4975C53.7849 79.1305 53.7105 78.735 53.7195 78.337V74.9081C53.7119 74.512 53.787 74.1187 53.94 73.7539C54.0929 73.3891 54.3202 73.061 54.607 72.791C54.8895 72.5125 55.224 72.2937 55.5911 72.1472C55.9581 72.0007 56.3503 71.9295 56.7448 71.9378H63.9237V74.1107H56.7448C56.1729 74.1107 55.885 74.3739 55.885 74.9081V78.3489C55.885 78.8712 56.1729 79.1463 56.7448 79.1463H61.7542V77.699H58.8236V75.5181H63.9237V81.3113Z" fill="#1D3D6F"></path><path d="M68.1053 70.3589H67.0167V68.5528H64.2556V70.3589H63.1748V65.6662H64.2556V67.4643H67.0167V65.6662H68.1053V70.3589Z" fill="#1D3D6F"></path><path d="M73.2373 66.7626H69.6873V67.4643H72.9967V68.5528H69.6873V69.2665H73.2373V70.3589H68.5947V65.6662H73.2373V66.7626Z" fill="#1D3D6F"></path><path d="M57.7627 65.6622V66.7587H59.6757V70.3589H60.7565V66.7587H62.6695V65.6622H57.7627Z" fill="#1D3D6F"></path></g><path d="M1.486 105.09C1.33 105.09 1.204 105.066 1.108 105.018C1.012 104.982 0.964 104.928 0.964 104.856C0.964 104.772 1.012 104.7 1.108 104.64C1.216 104.568 1.366 104.502 1.558 104.442C1.87 104.346 2.158 104.202 2.422 104.01C2.686 103.818 2.914 103.5 3.106 103.056C3.442 102.288 3.748 101.568 4.024 100.896C4.312 100.224 4.582 99.564 4.834 98.916C5.086 98.268 5.344 97.596 5.608 96.9C5.884 96.192 6.172 95.424 6.472 94.596C6.532 94.428 6.586 94.26 6.634 94.092C6.682 93.924 6.712 93.744 6.724 93.552C6.832 93.516 6.94 93.48 7.048 93.444C7.156 93.408 7.264 93.354 7.372 93.282C7.48 93.21 7.552 93.102 7.588 92.958C7.636 92.814 7.678 92.718 7.714 92.67C7.726 92.658 7.738 92.652 7.75 92.652C7.774 92.652 7.792 92.664 7.804 92.688C7.828 92.736 7.846 92.796 7.858 92.868C7.882 92.94 7.906 93.012 7.93 93.084C8.218 93.996 8.518 94.926 8.83 95.874C9.142 96.822 9.442 97.74 9.73 98.628C10.03 99.504 10.3 100.296 10.54 101.004C10.792 101.7 10.99 102.264 11.134 102.696C11.302 103.176 11.482 103.536 11.674 103.776C11.866 104.016 12.064 104.184 12.268 104.28C12.484 104.376 12.712 104.448 12.952 104.496C13.156 104.532 13.306 104.592 13.402 104.676C13.498 104.748 13.546 104.826 13.546 104.91C13.546 104.982 13.498 105.03 13.402 105.054C13.306 105.078 13.18 105.09 13.024 105.09C12.856 105.09 12.628 105.078 12.34 105.054C12.052 105.042 11.746 105.024 11.422 105C11.098 104.988 10.798 104.982 10.522 104.982C10.294 104.982 10.06 104.982 9.82 104.982C9.58 104.982 9.358 104.988 9.154 105C8.95 105 8.776 105 8.632 105C8.476 105 8.35 104.982 8.254 104.946C8.158 104.91 8.11 104.856 8.11 104.784C8.11 104.7 8.17 104.628 8.29 104.568C8.41 104.508 8.548 104.466 8.704 104.442C9.1 104.382 9.382 104.28 9.55 104.136C9.718 103.992 9.802 103.824 9.802 103.632C9.802 103.452 9.76 103.194 9.676 102.858C9.604 102.51 9.514 102.144 9.406 101.76C9.298 101.364 9.196 101.016 9.1 100.716C9.076 100.62 9.028 100.566 8.956 100.554C8.896 100.53 8.782 100.518 8.614 100.518H5.212C5.164 100.518 5.11 100.542 5.05 100.59C5.002 100.626 4.954 100.71 4.906 100.842C4.87 100.962 4.81 101.154 4.726 101.418C4.642 101.67 4.558 101.94 4.474 102.228C4.39 102.516 4.318 102.774 4.258 103.002C4.198 103.23 4.168 103.374 4.168 103.434C4.168 103.698 4.27 103.92 4.474 104.1C4.678 104.268 4.924 104.388 5.212 104.46C5.608 104.568 5.806 104.688 5.806 104.82C5.806 104.892 5.758 104.946 5.662 104.982C5.566 105.006 5.44 105.018 5.284 105.018C5.128 105.018 4.9 105.012 4.6 105C4.3 104.988 3.982 104.982 3.646 104.982C3.25 104.982 2.866 105 2.494 105.036C2.122 105.072 1.786 105.09 1.486 105.09ZM5.698 99.924H8.488C8.656 99.924 8.74 99.894 8.74 99.834C8.74 99.81 8.734 99.786 8.722 99.762C8.722 99.726 8.716 99.69 8.704 99.654L7.3 95.262C7.228 95.046 7.174 94.938 7.138 94.938C7.114 94.938 7.066 95.04 6.994 95.244L5.356 99.654C5.332 99.726 5.32 99.774 5.32 99.798C5.32 99.858 5.35 99.894 5.41 99.906C5.482 99.918 5.578 99.924 5.698 99.924ZM14.1829 110.13C14.1229 110.13 14.0449 110.118 13.9489 110.094C13.8529 110.082 13.8049 110.04 13.8049 109.968C13.8049 109.872 13.8469 109.8 13.9309 109.752C14.0269 109.716 14.1229 109.68 14.2189 109.644C14.3989 109.584 14.5729 109.512 14.7409 109.428C14.9089 109.356 14.9929 109.2 14.9929 108.96V99.834C14.9929 99.738 14.9629 99.594 14.9029 99.402C14.8549 99.21 14.7709 99.024 14.6509 98.844C14.5309 98.664 14.3689 98.556 14.1649 98.52C14.1169 98.508 14.0809 98.478 14.0569 98.43C14.0329 98.382 14.0209 98.334 14.0209 98.286C14.0209 98.226 14.0329 98.178 14.0569 98.142C14.0809 98.106 14.1109 98.082 14.1469 98.07C14.6029 97.962 14.9929 97.848 15.3169 97.728C15.6409 97.596 15.9469 97.47 16.2349 97.35C16.2469 97.35 16.2529 97.35 16.2529 97.35C16.2529 97.338 16.2589 97.332 16.2709 97.332C16.2949 97.332 16.3189 97.35 16.3429 97.386C16.3669 97.422 16.3789 97.458 16.3789 97.494C16.3789 97.602 16.3609 97.776 16.3249 98.016C16.3009 98.244 16.2889 98.43 16.2889 98.574C16.2889 98.67 16.2949 98.724 16.3069 98.736C16.4269 98.616 16.6429 98.466 16.9549 98.286C17.2789 98.094 17.6449 97.926 18.0529 97.782C18.4609 97.626 18.8509 97.548 19.2229 97.548C19.8469 97.548 20.3749 97.716 20.8069 98.052C21.2509 98.376 21.5869 98.802 21.8149 99.33C22.0549 99.846 22.1749 100.386 22.1749 100.95C22.1749 101.49 22.0729 102.018 21.8689 102.534C21.6649 103.038 21.3769 103.494 21.0049 103.902C20.6329 104.31 20.2009 104.64 19.7089 104.892C19.2169 105.132 18.6889 105.252 18.1249 105.252C17.9569 105.252 17.7529 105.222 17.5129 105.162C17.2849 105.114 17.0569 105.048 16.8289 104.964C16.6129 104.88 16.4449 104.784 16.3249 104.676C16.3129 104.676 16.3009 104.748 16.2889 104.892C16.2769 105.024 16.2649 105.162 16.2529 105.306C16.2529 105.462 16.2529 105.558 16.2529 105.594V108.96C16.2529 109.116 16.3129 109.236 16.4329 109.32C16.5649 109.416 16.7089 109.482 16.8649 109.518C17.0329 109.566 17.1769 109.608 17.2969 109.644C17.3929 109.68 17.4829 109.716 17.5669 109.752C17.6629 109.8 17.7109 109.872 17.7109 109.968C17.7109 110.04 17.6629 110.082 17.5669 110.094C17.4709 110.118 17.3869 110.13 17.3149 110.13C16.9669 110.13 16.6729 110.112 16.4329 110.076C16.2049 110.052 15.9349 110.04 15.6229 110.04C15.4189 110.04 15.2509 110.046 15.1189 110.058C14.9989 110.07 14.8729 110.082 14.7409 110.094C14.6089 110.118 14.4229 110.13 14.1829 110.13ZM18.3949 104.694C18.5749 104.694 18.7909 104.64 19.0429 104.532C19.3069 104.424 19.5649 104.25 19.8169 104.01C20.0809 103.77 20.2969 103.446 20.4649 103.038C20.6449 102.63 20.7349 102.126 20.7349 101.526C20.7349 100.83 20.6449 100.272 20.4649 99.852C20.2849 99.432 20.0629 99.114 19.7989 98.898C19.5349 98.682 19.2649 98.538 18.9889 98.466C18.7129 98.394 18.4789 98.358 18.2869 98.358C17.9989 98.358 17.6989 98.418 17.3869 98.538C17.0869 98.658 16.8289 98.796 16.6129 98.952C16.4089 99.096 16.3069 99.21 16.3069 99.294C16.3069 99.558 16.3009 99.828 16.2889 100.104C16.2889 100.368 16.2829 100.626 16.2709 100.878C16.2709 101.13 16.2649 101.358 16.2529 101.562C16.2529 101.754 16.2529 101.904 16.2529 102.012C16.2529 102.492 16.3609 102.936 16.5769 103.344C16.8049 103.752 17.0809 104.082 17.4049 104.334C17.7409 104.574 18.0709 104.694 18.3949 104.694ZM24.5513 105.252C24.3353 105.252 24.1133 105.168 23.8853 105C23.6693 104.832 23.4833 104.628 23.3273 104.388C23.1833 104.148 23.1113 103.92 23.1113 103.704C23.1113 103.32 23.2133 103.02 23.4173 102.804C23.6213 102.588 23.9453 102.39 24.3893 102.21L26.2253 101.454C26.4653 101.358 26.6033 101.274 26.6393 101.202C26.6873 101.13 26.7173 100.974 26.7293 100.734L26.7653 99.582C26.7773 99.27 26.6873 99 26.4953 98.772C26.3153 98.544 26.0513 98.43 25.7033 98.43C25.5233 98.43 25.3433 98.46 25.1633 98.52C24.9833 98.58 24.8333 98.658 24.7133 98.754C24.6413 98.802 24.5933 98.874 24.5693 98.97C24.5453 99.066 24.5333 99.168 24.5333 99.276C24.5333 99.324 24.5333 99.378 24.5333 99.438C24.5453 99.498 24.5513 99.552 24.5513 99.6C24.5513 99.66 24.4733 99.744 24.3173 99.852C24.1733 99.948 24.0053 100.038 23.8133 100.122C23.6333 100.194 23.4833 100.23 23.3633 100.23C23.3033 100.23 23.2553 100.218 23.2193 100.194C23.1833 100.158 23.1653 100.116 23.1653 100.068C23.1653 99.876 23.2253 99.672 23.3453 99.456C23.4773 99.228 23.6573 99.018 23.8853 98.826C24.1613 98.574 24.4613 98.352 24.7853 98.16C25.1093 97.968 25.4273 97.818 25.7393 97.71C26.0513 97.602 26.3273 97.548 26.5673 97.548C26.9993 97.548 27.3533 97.704 27.6293 98.016C27.9173 98.316 28.0553 98.694 28.0433 99.15L27.9533 103.47C27.9413 103.722 27.9953 103.926 28.1153 104.082C28.2473 104.238 28.4093 104.316 28.6013 104.316C28.9013 104.316 29.1233 104.25 29.2673 104.118C29.3273 104.058 29.3753 104.028 29.4113 104.028C29.4713 104.028 29.5193 104.046 29.5553 104.082C29.5913 104.118 29.6093 104.166 29.6093 104.226C29.6093 104.358 29.5433 104.49 29.4113 104.622C29.2193 104.814 29.0093 104.964 28.7813 105.072C28.5653 105.192 28.3613 105.252 28.1693 105.252C27.6173 105.252 27.1793 104.94 26.8553 104.316H26.8013C26.4053 104.64 26.0273 104.874 25.6673 105.018C25.3073 105.174 24.9353 105.252 24.5513 105.252ZM25.3973 104.388C25.6373 104.388 25.8413 104.352 26.0093 104.28C26.1773 104.196 26.3273 104.088 26.4593 103.956C26.5193 103.896 26.5673 103.818 26.6033 103.722C26.6513 103.614 26.6813 103.446 26.6933 103.218L26.7293 102.336C26.7413 102.204 26.7353 102.108 26.7113 102.048C26.6873 101.988 26.6393 101.958 26.5673 101.958C26.5433 101.958 26.5013 101.964 26.4413 101.976C26.3813 101.988 26.3033 102.012 26.2073 102.048C25.5713 102.276 25.1273 102.516 24.8753 102.768C24.6353 103.008 24.5153 103.23 24.5153 103.434C24.5153 103.746 24.6053 103.986 24.7853 104.154C24.9773 104.31 25.1813 104.388 25.3973 104.388ZM30.5168 105.054C30.3968 105.054 30.3068 105.036 30.2468 105C30.1868 104.976 30.1568 104.928 30.1568 104.856C30.1568 104.76 30.1928 104.7 30.2648 104.676C30.3368 104.64 30.4388 104.604 30.5708 104.568C30.7988 104.508 30.9668 104.424 31.0748 104.316C31.1948 104.196 31.2548 104.052 31.2548 103.884V100.014C31.2548 99.69 31.2068 99.408 31.1108 99.168C31.0148 98.928 30.8168 98.778 30.5168 98.718C30.4688 98.706 30.4268 98.676 30.3908 98.628C30.3548 98.58 30.3368 98.532 30.3368 98.484C30.3368 98.364 30.3908 98.292 30.4988 98.268C30.8108 98.172 31.1348 98.034 31.4708 97.854C31.8188 97.662 32.0888 97.506 32.2808 97.386C32.3528 97.338 32.4068 97.308 32.4428 97.296C32.4908 97.272 32.5268 97.26 32.5508 97.26C32.6108 97.26 32.6408 97.302 32.6408 97.386C32.6408 97.422 32.6348 97.512 32.6228 97.656C32.6228 97.8 32.6168 97.968 32.6048 98.16C32.6048 98.352 32.5988 98.544 32.5868 98.736C32.5868 98.76 32.5988 98.772 32.6228 98.772C32.8148 98.532 33.0248 98.322 33.2528 98.142C33.4928 97.962 33.7328 97.818 33.9728 97.71C34.2248 97.602 34.4648 97.548 34.6928 97.548C34.9448 97.548 35.1488 97.602 35.3048 97.71C35.4728 97.818 35.5568 97.956 35.5568 98.124C35.5568 98.244 35.5208 98.376 35.4488 98.52C35.3888 98.664 35.3048 98.79 35.1968 98.898C35.0888 99.006 34.9748 99.06 34.8548 99.06C34.7828 99.06 34.7048 99.048 34.6208 99.024C34.5368 98.988 34.4468 98.946 34.3508 98.898C34.2548 98.862 34.1588 98.826 34.0628 98.79C33.9668 98.754 33.8708 98.736 33.7748 98.736C33.4868 98.736 33.2048 98.838 32.9288 99.042C32.6648 99.246 32.5328 99.648 32.5328 100.248V103.884C32.5328 104.04 32.6168 104.172 32.7848 104.28C32.9528 104.376 33.1868 104.472 33.4868 104.568C33.6188 104.604 33.7208 104.64 33.7928 104.676C33.8648 104.712 33.9008 104.772 33.9008 104.856C33.9008 104.988 33.7808 105.054 33.5408 105.054C33.1808 105.054 32.9048 105.036 32.7128 105C32.5328 104.976 32.2868 104.964 31.9748 104.964C31.7708 104.964 31.6028 104.97 31.4708 104.982C31.3508 104.994 31.2188 105.006 31.0748 105.018C30.9428 105.042 30.7568 105.054 30.5168 105.054ZM39.0485 105.252C38.4605 105.252 37.9985 105.072 37.6625 104.712C37.3385 104.352 37.1765 103.818 37.1765 103.11V98.934C37.1765 98.838 37.1405 98.772 37.0685 98.736C36.9965 98.688 36.8405 98.664 36.6005 98.664H36.4925C36.4325 98.664 36.3785 98.628 36.3305 98.556C36.2945 98.472 36.2765 98.388 36.2765 98.304C36.2765 98.28 36.2945 98.244 36.3305 98.196C36.3665 98.148 36.3905 98.118 36.4025 98.106C36.6425 97.938 36.8585 97.77 37.0505 97.602C37.2545 97.434 37.4345 97.272 37.5905 97.116C37.7585 96.948 37.8965 96.798 38.0045 96.666C38.0645 96.606 38.1125 96.558 38.1485 96.522C38.1965 96.474 38.2505 96.45 38.3105 96.45C38.3705 96.45 38.4245 96.462 38.4725 96.486C38.5325 96.51 38.5565 96.564 38.5445 96.648L38.4545 97.458C38.4425 97.59 38.4725 97.68 38.5445 97.728C38.6165 97.776 38.7305 97.8 38.8865 97.8H40.9385C40.9865 97.8 41.0285 97.842 41.0645 97.926C41.1005 97.998 41.1185 98.088 41.1185 98.196C41.1185 98.304 41.1005 98.412 41.0645 98.52C41.0285 98.616 40.9865 98.664 40.9385 98.664H39.1565C38.8565 98.664 38.6585 98.688 38.5625 98.736C38.4785 98.784 38.4365 98.928 38.4365 99.168V102.714C38.4365 103.194 38.5385 103.572 38.7425 103.848C38.9465 104.124 39.2405 104.262 39.6245 104.262C39.9725 104.262 40.2425 104.238 40.4345 104.19C40.6265 104.13 40.8005 104.046 40.9565 103.938C40.9805 103.914 41.0045 103.902 41.0285 103.902C41.0765 103.902 41.1065 103.932 41.1185 103.992C41.1425 104.04 41.1545 104.094 41.1545 104.154C41.1545 104.214 41.0525 104.334 40.8485 104.514C40.6565 104.694 40.3985 104.862 40.0745 105.018C39.7625 105.174 39.4205 105.252 39.0485 105.252ZM42.0986 105.054C42.0026 105.054 41.9186 105.042 41.8466 105.018C41.7746 104.994 41.7386 104.94 41.7386 104.856C41.7386 104.772 41.7746 104.712 41.8466 104.676C41.9306 104.64 42.0326 104.604 42.1526 104.568C42.3206 104.508 42.4886 104.442 42.6566 104.37C42.8366 104.286 42.9266 104.124 42.9266 103.884V100.014C42.9266 99.69 42.8906 99.408 42.8186 99.168C42.7466 98.916 42.5546 98.766 42.2426 98.718C42.1946 98.706 42.1526 98.682 42.1166 98.646C42.0926 98.61 42.0806 98.556 42.0806 98.484C42.0806 98.364 42.1286 98.292 42.2246 98.268C42.5486 98.184 42.8066 98.1 42.9986 98.016C43.1906 97.92 43.3586 97.818 43.5026 97.71C43.6586 97.59 43.8446 97.464 44.0606 97.332C44.0846 97.32 44.1086 97.308 44.1326 97.296C44.1566 97.272 44.1866 97.26 44.2226 97.26C44.2946 97.26 44.3306 97.302 44.3306 97.386C44.3306 97.47 44.3126 97.644 44.2766 97.908C44.2526 98.16 44.2406 98.37 44.2406 98.538C44.2406 98.658 44.2526 98.73 44.2766 98.754H44.3126C44.5886 98.49 44.9486 98.226 45.3926 97.962C45.8486 97.686 46.4246 97.548 47.1206 97.548C47.5526 97.548 47.9126 97.644 48.2006 97.836C48.4886 98.016 48.7286 98.334 48.9206 98.79H48.9746C49.3586 98.442 49.7966 98.148 50.2886 97.908C50.7806 97.668 51.3206 97.548 51.9086 97.548C52.3046 97.548 52.6346 97.668 52.8986 97.908C53.1626 98.148 53.3606 98.46 53.4926 98.844C53.6366 99.228 53.7086 99.63 53.7086 100.05V103.884C53.7086 104.124 53.7926 104.286 53.9606 104.37C54.1286 104.442 54.3026 104.508 54.4826 104.568C54.6026 104.604 54.6986 104.64 54.7706 104.676C54.8546 104.712 54.8966 104.772 54.8966 104.856C54.8966 104.928 54.8666 104.976 54.8066 105C54.7586 105.036 54.6686 105.054 54.5366 105.054C54.2966 105.054 54.1106 105.042 53.9786 105.018C53.8466 105.006 53.7206 104.994 53.6006 104.982C53.4926 104.97 53.3306 104.964 53.1146 104.964C52.9106 104.964 52.7426 104.97 52.6106 104.982C52.4786 104.994 52.3406 105.006 52.1966 105.018C52.0526 105.042 51.8606 105.054 51.6206 105.054C51.5126 105.054 51.4226 105.036 51.3506 105C51.2906 104.976 51.2606 104.928 51.2606 104.856C51.2606 104.76 51.2966 104.694 51.3686 104.658C51.4526 104.622 51.5546 104.592 51.6746 104.568C51.8666 104.52 52.0406 104.454 52.1966 104.37C52.3646 104.286 52.4486 104.124 52.4486 103.884V100.104C52.4486 99.816 52.3826 99.546 52.2506 99.294C52.1186 99.03 51.9446 98.814 51.7286 98.646C51.5126 98.478 51.2726 98.394 51.0086 98.394C50.7086 98.394 50.4266 98.43 50.1626 98.502C49.9106 98.574 49.6706 98.7 49.4426 98.88C49.1066 99.144 48.9386 99.576 48.9386 100.176V103.884C48.9386 104.124 49.0286 104.286 49.2086 104.37C49.3886 104.454 49.5686 104.52 49.7486 104.568C49.8686 104.592 49.9646 104.628 50.0366 104.676C50.1206 104.712 50.1626 104.772 50.1626 104.856C50.1626 104.928 50.1326 104.976 50.0726 105C50.0126 105.036 49.9226 105.054 49.8026 105.054C49.5626 105.054 49.3706 105.042 49.2266 105.018C49.0946 105.006 48.9626 104.994 48.8306 104.982C48.7106 104.97 48.5426 104.964 48.3266 104.964C48.1226 104.964 47.9546 104.97 47.8226 104.982C47.6906 104.994 47.5526 105.006 47.4086 105.018C47.2646 105.042 47.0726 105.054 46.8326 105.054C46.7366 105.054 46.6526 105.036 46.5806 105C46.5086 104.976 46.4726 104.928 46.4726 104.856C46.4726 104.76 46.5146 104.7 46.5986 104.676C46.6946 104.64 46.7906 104.604 46.8866 104.568C47.0666 104.508 47.2406 104.442 47.4086 104.37C47.5886 104.286 47.6786 104.124 47.6786 103.884V100.104C47.6786 99.816 47.6126 99.546 47.4806 99.294C47.3486 99.03 47.1746 98.814 46.9586 98.646C46.7426 98.478 46.5026 98.394 46.2386 98.394C45.9386 98.394 45.6566 98.43 45.3926 98.502C45.1406 98.574 44.9006 98.7 44.6726 98.88C44.3486 99.12 44.1866 99.552 44.1866 100.176V103.884C44.1866 104.124 44.2706 104.286 44.4386 104.37C44.6066 104.442 44.7806 104.508 44.9606 104.568C45.0566 104.604 45.1466 104.64 45.2306 104.676C45.3266 104.7 45.3746 104.76 45.3746 104.856C45.3746 104.928 45.3386 104.976 45.2666 105C45.2066 105.036 45.1226 105.054 45.0146 105.054C44.7746 105.054 44.5826 105.042 44.4386 105.018C44.3066 105.006 44.1806 104.994 44.0606 104.982C43.9406 104.97 43.7726 104.964 43.5566 104.964C43.3526 104.964 43.1846 104.97 43.0526 104.982C42.9326 104.994 42.8006 105.006 42.6566 105.018C42.5246 105.042 42.3386 105.054 42.0986 105.054ZM59.1504 105.27C58.4904 105.27 57.9144 105.108 57.4224 104.784C56.9304 104.46 56.5464 104.004 56.2704 103.416C55.9944 102.816 55.8564 102.126 55.8564 101.346C55.8564 100.65 56.0124 100.02 56.3244 99.456C56.6484 98.88 57.0744 98.418 57.6024 98.07C58.1304 97.722 58.7064 97.548 59.3304 97.548C59.8104 97.548 60.2364 97.644 60.6084 97.836C60.9804 98.028 61.2684 98.298 61.4724 98.646C61.6884 98.982 61.7964 99.372 61.7964 99.816C61.7964 100.188 61.6164 100.374 61.2564 100.374H57.4584C57.2904 100.374 57.1704 100.422 57.0984 100.518C57.0384 100.602 57.0084 100.776 57.0084 101.04C57.0084 101.616 57.1344 102.144 57.3864 102.624C57.6384 103.092 57.9744 103.47 58.3944 103.758C58.8144 104.034 59.2764 104.172 59.7804 104.172C60.1404 104.172 60.4644 104.106 60.7524 103.974C61.0524 103.83 61.3164 103.626 61.5444 103.362C61.5924 103.302 61.6284 103.266 61.6524 103.254C61.6764 103.23 61.7064 103.218 61.7424 103.218C61.8384 103.218 61.8864 103.278 61.8864 103.398C61.8864 103.626 61.7784 103.878 61.5624 104.154C61.3824 104.382 61.1664 104.58 60.9144 104.748C60.6624 104.916 60.3864 105.042 60.0864 105.126C59.7864 105.222 59.4744 105.27 59.1504 105.27ZM57.4944 99.816H59.1324C59.4204 99.816 59.6664 99.81 59.8704 99.798C60.0744 99.786 60.2724 99.762 60.4644 99.726C60.5244 99.714 60.5604 99.678 60.5724 99.618C60.5964 99.546 60.6084 99.45 60.6084 99.33C60.6084 98.982 60.4524 98.688 60.1404 98.448C59.8404 98.196 59.4804 98.07 59.0604 98.07C58.7844 98.07 58.5084 98.154 58.2324 98.322C57.9564 98.478 57.7284 98.676 57.5484 98.916C57.3684 99.156 57.2784 99.396 57.2784 99.636C57.2784 99.756 57.3504 99.816 57.4944 99.816ZM63.1221 105.054C63.0141 105.054 62.9241 105.036 62.8521 105C62.7921 104.976 62.7621 104.928 62.7621 104.856C62.7621 104.76 62.7981 104.7 62.8701 104.676C62.9421 104.64 63.0441 104.604 63.1761 104.568C63.3561 104.52 63.5301 104.454 63.6981 104.37C63.8661 104.286 63.9501 104.124 63.9501 103.884V100.014C63.9501 99.69 63.9141 99.414 63.8421 99.186C63.7821 98.958 63.5961 98.802 63.2841 98.718C63.2361 98.694 63.1941 98.67 63.1581 98.646C63.1221 98.61 63.1041 98.556 63.1041 98.484C63.1041 98.352 63.1581 98.28 63.2661 98.268C63.6861 98.16 64.0281 98.028 64.2921 97.872C64.5561 97.716 64.8141 97.542 65.0661 97.35C65.1021 97.326 65.1321 97.308 65.1561 97.296C65.1921 97.272 65.2281 97.26 65.2641 97.26C65.2881 97.26 65.3061 97.272 65.3181 97.296C65.3421 97.32 65.3541 97.35 65.3541 97.386C65.3541 97.47 65.3361 97.644 65.3001 97.908C65.2761 98.16 65.2641 98.37 65.2641 98.538C65.2641 98.586 65.2641 98.634 65.2641 98.682C65.2761 98.718 65.2881 98.742 65.3001 98.754C65.7201 98.358 66.1641 98.058 66.6321 97.854C67.1121 97.65 67.6341 97.548 68.1981 97.548C68.7861 97.548 69.2721 97.788 69.6561 98.268C70.0401 98.748 70.2321 99.342 70.2321 100.05V103.884C70.2321 104.124 70.3161 104.286 70.4841 104.37C70.6521 104.442 70.8261 104.508 71.0061 104.568C71.1021 104.604 71.1921 104.646 71.2761 104.694C71.3721 104.73 71.4201 104.796 71.4201 104.892C71.4201 104.964 71.3781 105.006 71.2941 105.018C71.2101 105.042 71.1321 105.054 71.0601 105.054C70.8201 105.054 70.6341 105.042 70.5021 105.018C70.3701 105.006 70.2441 104.994 70.1241 104.982C70.0041 104.97 69.8361 104.964 69.6201 104.964C69.4161 104.964 69.2481 104.97 69.1161 104.982C68.9841 104.994 68.8461 105.006 68.7021 105.018C68.5701 105.042 68.3841 105.054 68.1441 105.054C68.0841 105.054 68.0061 105.042 67.9101 105.018C67.8261 105.006 67.7841 104.964 67.7841 104.892C67.7841 104.796 67.8261 104.73 67.9101 104.694C68.0061 104.646 68.1021 104.604 68.1981 104.568C68.3781 104.508 68.5521 104.442 68.7201 104.37C68.8881 104.286 68.9721 104.124 68.9721 103.884V100.104C68.9721 99.576 68.8221 99.168 68.5221 98.88C68.2341 98.58 67.8441 98.424 67.3521 98.412C66.9201 98.412 66.5421 98.484 66.2181 98.628C65.8941 98.76 65.6061 98.928 65.3541 99.132C65.3061 99.18 65.2701 99.246 65.2461 99.33C65.2221 99.402 65.2101 99.474 65.2101 99.546V103.884C65.2101 104.124 65.2941 104.286 65.4621 104.37C65.6301 104.454 65.8041 104.52 65.9841 104.568C66.2601 104.64 66.3981 104.736 66.3981 104.856C66.3981 104.928 66.3681 104.976 66.3081 105C66.2481 105.036 66.1581 105.054 66.0381 105.054C65.7981 105.054 65.6061 105.042 65.4621 105.018C65.3301 105.006 65.2041 104.994 65.0841 104.982C64.9641 104.97 64.7961 104.964 64.5801 104.964C64.3761 104.964 64.2081 104.97 64.0761 104.982C63.9561 104.994 63.8241 105.006 63.6801 105.018C63.5481 105.042 63.3621 105.054 63.1221 105.054ZM75.2418 105.252C74.6538 105.252 74.1918 105.072 73.8558 104.712C73.5318 104.352 73.3698 103.818 73.3698 103.11V98.934C73.3698 98.838 73.3338 98.772 73.2618 98.736C73.1898 98.688 73.0338 98.664 72.7938 98.664H72.6858C72.6258 98.664 72.5718 98.628 72.5238 98.556C72.4878 98.472 72.4698 98.388 72.4698 98.304C72.4698 98.28 72.4878 98.244 72.5238 98.196C72.5598 98.148 72.5838 98.118 72.5958 98.106C72.8358 97.938 73.0518 97.77 73.2438 97.602C73.4478 97.434 73.6278 97.272 73.7838 97.116C73.9518 96.948 74.0898 96.798 74.1978 96.666C74.2578 96.606 74.3058 96.558 74.3418 96.522C74.3898 96.474 74.4438 96.45 74.5038 96.45C74.5638 96.45 74.6178 96.462 74.6658 96.486C74.7258 96.51 74.7498 96.564 74.7378 96.648L74.6478 97.458C74.6358 97.59 74.6658 97.68 74.7378 97.728C74.8098 97.776 74.9238 97.8 75.0798 97.8H77.1318C77.1798 97.8 77.2218 97.842 77.2578 97.926C77.2938 97.998 77.3118 98.088 77.3118 98.196C77.3118 98.304 77.2938 98.412 77.2578 98.52C77.2218 98.616 77.1798 98.664 77.1318 98.664H75.3498C75.0498 98.664 74.8518 98.688 74.7558 98.736C74.6718 98.784 74.6298 98.928 74.6298 99.168V102.714C74.6298 103.194 74.7318 103.572 74.9358 103.848C75.1398 104.124 75.4338 104.262 75.8178 104.262C76.1658 104.262 76.4358 104.238 76.6278 104.19C76.8198 104.13 76.9938 104.046 77.1498 103.938C77.1738 103.914 77.1978 103.902 77.2218 103.902C77.2698 103.902 77.2998 103.932 77.3118 103.992C77.3358 104.04 77.3478 104.094 77.3478 104.154C77.3478 104.214 77.2458 104.334 77.0418 104.514C76.8498 104.694 76.5918 104.862 76.2678 105.018C75.9558 105.174 75.6138 105.252 75.2418 105.252ZM83.1195 110.202C83.0715 110.202 83.0235 110.172 82.9755 110.112C82.9275 110.064 82.9035 110.01 82.9035 109.95V92.832C82.9035 92.736 82.9395 92.652 83.0115 92.58C83.0835 92.508 83.1675 92.454 83.2635 92.418C83.3715 92.37 83.4675 92.334 83.5515 92.31C83.6475 92.286 83.7075 92.274 83.7315 92.274C83.7915 92.274 83.8455 92.298 83.8935 92.346C83.9535 92.394 83.9835 92.448 83.9835 92.508V109.77C83.9835 109.866 83.9475 109.938 83.8755 109.986C83.8035 110.046 83.7135 110.088 83.6055 110.112C83.5095 110.148 83.4135 110.172 83.3175 110.184C83.2215 110.196 83.1555 110.202 83.1195 110.202ZM90.5708 105.09C90.4148 105.09 90.2888 105.066 90.1928 105.018C90.0968 104.982 90.0488 104.928 90.0488 104.856C90.0488 104.736 90.2408 104.64 90.6248 104.568C91.0808 104.484 91.3748 104.346 91.5068 104.154C91.6508 103.962 91.7228 103.65 91.7228 103.218V95.082C91.7228 94.662 91.6748 94.368 91.5788 94.2C91.4948 94.02 91.2248 93.888 90.7688 93.804C90.3728 93.732 90.1748 93.624 90.1748 93.48C90.1748 93.408 90.2168 93.354 90.3008 93.318C90.3848 93.27 90.5168 93.246 90.6968 93.246C91.0208 93.246 91.2728 93.252 91.4528 93.264C91.6328 93.276 91.8008 93.288 91.9568 93.3C92.1128 93.3 92.3108 93.3 92.5508 93.3C92.8028 93.3 93.0068 93.3 93.1628 93.3C93.3308 93.288 93.5048 93.276 93.6848 93.264C93.8768 93.252 94.1348 93.246 94.4588 93.246C94.8068 93.246 94.9808 93.324 94.9808 93.48C94.9808 93.564 94.9328 93.63 94.8368 93.678C94.7408 93.726 94.5908 93.768 94.3868 93.804C93.9428 93.888 93.6248 94.038 93.4328 94.254C93.2528 94.458 93.1628 94.734 93.1628 95.082V98.628C93.1628 98.7 93.1928 98.748 93.2528 98.772C93.3128 98.784 93.3668 98.79 93.4148 98.79H100.093C100.177 98.79 100.219 98.718 100.219 98.574V95.064C100.219 94.74 100.135 94.47 99.9668 94.254C99.7988 94.038 99.4868 93.888 99.0308 93.804C98.8268 93.768 98.6768 93.726 98.5808 93.678C98.4848 93.63 98.4368 93.564 98.4368 93.48C98.4368 93.324 98.6108 93.246 98.9588 93.246C99.2828 93.246 99.5468 93.252 99.7508 93.264C99.9668 93.276 100.171 93.288 100.363 93.3C100.555 93.3 100.783 93.3 101.047 93.3C101.263 93.3 101.431 93.3 101.551 93.3C101.671 93.288 101.809 93.276 101.965 93.264C102.121 93.252 102.361 93.246 102.685 93.246C102.853 93.246 102.979 93.27 103.063 93.318C103.159 93.354 103.207 93.408 103.207 93.48C103.207 93.624 103.009 93.732 102.613 93.804C102.169 93.888 101.899 94.032 101.803 94.236C101.707 94.44 101.659 94.716 101.659 95.064V103.2C101.659 103.644 101.713 103.962 101.821 104.154C101.941 104.346 102.223 104.484 102.667 104.568C103.051 104.64 103.243 104.736 103.243 104.856C103.243 104.928 103.195 104.982 103.099 105.018C103.003 105.066 102.877 105.09 102.721 105.09C102.397 105.09 102.145 105.078 101.965 105.054C101.785 105.042 101.617 105.03 101.461 105.018C101.305 105.006 101.101 105 100.849 105C100.597 105 100.387 105.006 100.219 105.018C100.063 105.03 99.8888 105.042 99.6968 105.054C99.5048 105.078 99.2468 105.09 98.9228 105.09C98.7668 105.09 98.6408 105.066 98.5448 105.018C98.4488 104.982 98.4008 104.928 98.4008 104.856C98.4008 104.772 98.4428 104.712 98.5268 104.676C98.6228 104.64 98.7728 104.604 98.9768 104.568C99.3608 104.496 99.6608 104.358 99.8768 104.154C100.105 103.938 100.219 103.638 100.219 103.254V99.744C100.219 99.684 100.219 99.624 100.219 99.564C100.219 99.504 100.189 99.474 100.129 99.474H93.2528C93.1928 99.474 93.1628 99.54 93.1628 99.672V103.092C93.1628 103.464 93.3008 103.788 93.5768 104.064C93.8528 104.328 94.1948 104.496 94.6028 104.568C94.8068 104.604 94.9508 104.64 95.0348 104.676C95.1308 104.712 95.1788 104.772 95.1788 104.856C95.1788 104.928 95.1308 104.982 95.0348 105.018C94.9388 105.066 94.8128 105.09 94.6568 105.09C94.3328 105.09 94.0628 105.078 93.8468 105.054C93.6428 105.042 93.4448 105.03 93.2528 105.018C93.0608 105.006 92.8268 105 92.5508 105C92.2988 105 92.0828 105.006 91.9028 105.018C91.7348 105.03 91.5488 105.042 91.3448 105.054C91.1528 105.078 90.8948 105.09 90.5708 105.09ZM108.167 105.252C107.495 105.252 106.889 105.096 106.349 104.784C105.809 104.472 105.377 104.046 105.053 103.506C104.741 102.954 104.585 102.33 104.585 101.634C104.585 101.13 104.681 100.638 104.873 100.158C105.077 99.678 105.359 99.24 105.719 98.844C106.079 98.448 106.499 98.136 106.979 97.908C107.459 97.668 107.975 97.548 108.527 97.548C109.223 97.548 109.847 97.716 110.399 98.052C110.963 98.388 111.407 98.832 111.731 99.384C112.067 99.924 112.235 100.518 112.235 101.166C112.235 101.862 112.079 102.522 111.767 103.146C111.467 103.77 111.017 104.28 110.417 104.676C109.817 105.06 109.067 105.252 108.167 105.252ZM108.545 104.712C108.953 104.712 109.319 104.634 109.643 104.478C109.967 104.322 110.219 104.07 110.399 103.722C110.543 103.446 110.639 103.11 110.687 102.714C110.735 102.318 110.759 101.946 110.759 101.598C110.759 101.022 110.651 100.47 110.435 99.942C110.231 99.402 109.937 98.964 109.553 98.628C109.181 98.28 108.737 98.106 108.221 98.106C107.897 98.106 107.603 98.16 107.339 98.268C107.087 98.364 106.853 98.55 106.637 98.826C106.397 99.126 106.241 99.492 106.169 99.924C106.097 100.356 106.061 100.788 106.061 101.22C106.061 101.808 106.169 102.372 106.385 102.912C106.601 103.44 106.895 103.872 107.267 104.208C107.639 104.544 108.065 104.712 108.545 104.712ZM116.269 105.252C115.681 105.252 115.219 105.072 114.883 104.712C114.559 104.352 114.397 103.818 114.397 103.11V98.934C114.397 98.838 114.361 98.772 114.289 98.736C114.217 98.688 114.061 98.664 113.821 98.664H113.713C113.653 98.664 113.599 98.628 113.551 98.556C113.515 98.472 113.497 98.388 113.497 98.304C113.497 98.28 113.515 98.244 113.551 98.196C113.587 98.148 113.611 98.118 113.623 98.106C113.863 97.938 114.079 97.77 114.271 97.602C114.475 97.434 114.655 97.272 114.811 97.116C114.979 96.948 115.117 96.798 115.225 96.666C115.285 96.606 115.333 96.558 115.369 96.522C115.417 96.474 115.471 96.45 115.531 96.45C115.591 96.45 115.645 96.462 115.693 96.486C115.753 96.51 115.777 96.564 115.765 96.648L115.675 97.458C115.663 97.59 115.693 97.68 115.765 97.728C115.837 97.776 115.951 97.8 116.107 97.8H118.159C118.207 97.8 118.249 97.842 118.285 97.926C118.321 97.998 118.339 98.088 118.339 98.196C118.339 98.304 118.321 98.412 118.285 98.52C118.249 98.616 118.207 98.664 118.159 98.664H116.377C116.077 98.664 115.879 98.688 115.783 98.736C115.699 98.784 115.657 98.928 115.657 99.168V102.714C115.657 103.194 115.759 103.572 115.963 103.848C116.167 104.124 116.461 104.262 116.845 104.262C117.193 104.262 117.463 104.238 117.655 104.19C117.847 104.13 118.021 104.046 118.177 103.938C118.201 103.914 118.225 103.902 118.249 103.902C118.297 103.902 118.327 103.932 118.339 103.992C118.363 104.04 118.375 104.094 118.375 104.154C118.375 104.214 118.273 104.334 118.069 104.514C117.877 104.694 117.619 104.862 117.295 105.018C116.983 105.174 116.641 105.252 116.269 105.252ZM122.361 105.27C121.701 105.27 121.125 105.108 120.633 104.784C120.141 104.46 119.757 104.004 119.481 103.416C119.205 102.816 119.067 102.126 119.067 101.346C119.067 100.65 119.223 100.02 119.535 99.456C119.859 98.88 120.285 98.418 120.813 98.07C121.341 97.722 121.917 97.548 122.541 97.548C123.021 97.548 123.447 97.644 123.819 97.836C124.191 98.028 124.479 98.298 124.683 98.646C124.899 98.982 125.007 99.372 125.007 99.816C125.007 100.188 124.827 100.374 124.467 100.374H120.669C120.501 100.374 120.381 100.422 120.309 100.518C120.249 100.602 120.219 100.776 120.219 101.04C120.219 101.616 120.345 102.144 120.597 102.624C120.849 103.092 121.185 103.47 121.605 103.758C122.025 104.034 122.487 104.172 122.991 104.172C123.351 104.172 123.675 104.106 123.963 103.974C124.263 103.83 124.527 103.626 124.755 103.362C124.803 103.302 124.839 103.266 124.863 103.254C124.887 103.23 124.917 103.218 124.953 103.218C125.049 103.218 125.097 103.278 125.097 103.398C125.097 103.626 124.989 103.878 124.773 104.154C124.593 104.382 124.377 104.58 124.125 104.748C123.873 104.916 123.597 105.042 123.297 105.126C122.997 105.222 122.685 105.27 122.361 105.27ZM120.705 99.816H122.343C122.631 99.816 122.877 99.81 123.081 99.798C123.285 99.786 123.483 99.762 123.675 99.726C123.735 99.714 123.771 99.678 123.783 99.618C123.807 99.546 123.819 99.45 123.819 99.33C123.819 98.982 123.663 98.688 123.351 98.448C123.051 98.196 122.691 98.07 122.271 98.07C121.995 98.07 121.719 98.154 121.443 98.322C121.167 98.478 120.939 98.676 120.759 98.916C120.579 99.156 120.489 99.396 120.489 99.636C120.489 99.756 120.561 99.816 120.705 99.816ZM126.243 105.054C126.183 105.054 126.105 105.042 126.009 105.018C125.925 105.006 125.883 104.964 125.883 104.892C125.883 104.796 125.925 104.73 126.009 104.694C126.105 104.646 126.201 104.604 126.297 104.568C126.477 104.508 126.651 104.442 126.819 104.37C126.987 104.286 127.071 104.124 127.071 103.884V94.812C127.071 94.464 127.005 94.176 126.873 93.948C126.753 93.708 126.543 93.558 126.243 93.498C126.147 93.474 126.099 93.396 126.099 93.264C126.099 93.144 126.141 93.072 126.225 93.048C126.537 92.976 126.807 92.904 127.035 92.832C127.263 92.748 127.473 92.664 127.665 92.58C127.869 92.496 128.067 92.418 128.259 92.346C128.307 92.322 128.343 92.31 128.367 92.31C128.391 92.31 128.409 92.328 128.421 92.364C128.445 92.388 128.457 92.412 128.457 92.436C128.457 92.544 128.433 92.778 128.385 93.138C128.349 93.486 128.331 94.068 128.331 94.884V103.884C128.331 104.124 128.415 104.286 128.583 104.37C128.751 104.442 128.925 104.508 129.105 104.568C129.201 104.604 129.291 104.646 129.375 104.694C129.471 104.73 129.519 104.796 129.519 104.892C129.519 104.964 129.471 105.006 129.375 105.018C129.291 105.042 129.219 105.054 129.159 105.054C128.931 105.054 128.745 105.042 128.601 105.018C128.469 105.006 128.337 104.994 128.205 104.982C128.085 104.97 127.917 104.964 127.701 104.964C127.497 104.964 127.329 104.97 127.197 104.982C127.065 104.994 126.933 105.006 126.801 105.018C126.669 105.042 126.483 105.054 126.243 105.054Z" fill="#1D3D6F"></path><path d="M40.6077 128.126C40.4877 128.126 40.2177 128.114 39.7977 128.09C39.3897 128.066 38.9157 128.042 38.3757 128.018C37.8477 128.006 37.3437 128 36.8637 128C36.6237 128 36.4197 128.006 36.2517 128.018C36.0957 128.03 35.9217 128.042 35.7297 128.054C35.5497 128.078 35.2977 128.09 34.9737 128.09C34.8177 128.09 34.6917 128.072 34.5957 128.036C34.4997 128 34.4517 127.94 34.4517 127.856C34.4517 127.76 34.4997 127.7 34.5957 127.676C34.6917 127.64 34.8417 127.604 35.0457 127.568C35.5017 127.484 35.8137 127.346 35.9817 127.154C36.1617 126.962 36.2517 126.65 36.2517 126.218V118.118C36.2517 117.686 36.1617 117.38 35.9817 117.2C35.8137 117.02 35.5017 116.888 35.0457 116.804C34.8417 116.768 34.6917 116.732 34.5957 116.696C34.4997 116.648 34.4517 116.576 34.4517 116.48C34.4517 116.396 34.4997 116.336 34.5957 116.3C34.6917 116.264 34.8177 116.246 34.9737 116.246C35.2857 116.246 35.5317 116.252 35.7117 116.264C35.9037 116.264 36.0897 116.27 36.2697 116.282C36.4497 116.282 36.6837 116.282 36.9717 116.282C37.1637 116.282 37.4037 116.276 37.6917 116.264C37.9917 116.252 38.2977 116.234 38.6097 116.21C38.9337 116.186 39.2217 116.168 39.4737 116.156C39.7377 116.144 39.9297 116.138 40.0497 116.138C41.2737 116.138 42.3177 116.288 43.1817 116.588C44.0457 116.876 44.7477 117.284 45.2877 117.812C45.8277 118.328 46.2237 118.934 46.4757 119.63C46.7397 120.314 46.8717 121.052 46.8717 121.844C46.8717 122.708 46.7097 123.518 46.3857 124.274C46.0617 125.03 45.6117 125.702 45.0357 126.29C44.4597 126.866 43.7937 127.316 43.0377 127.64C42.2817 127.964 41.4717 128.126 40.6077 128.126ZM40.3917 127.496C41.3277 127.496 42.1557 127.268 42.8757 126.812C43.5957 126.356 44.1537 125.726 44.5497 124.922C44.9577 124.118 45.1617 123.194 45.1617 122.15C45.1617 121.286 45.0177 120.518 44.7297 119.846C44.4417 119.162 44.0577 118.592 43.5777 118.136C43.0977 117.668 42.5577 117.314 41.9577 117.074C41.3577 116.822 40.7517 116.696 40.1397 116.696C39.6237 116.696 39.1797 116.714 38.8077 116.75C38.4477 116.774 38.1717 116.864 37.9797 117.02C37.7877 117.176 37.6917 117.434 37.6917 117.794V125.822C37.6917 126.302 37.8237 126.662 38.0877 126.902C38.3517 127.142 38.6877 127.304 39.0957 127.388C39.5157 127.46 39.9477 127.496 40.3917 127.496ZM49.606 128.252C49.39 128.252 49.168 128.168 48.94 128C48.724 127.832 48.538 127.628 48.382 127.388C48.238 127.148 48.166 126.92 48.166 126.704C48.166 126.32 48.268 126.02 48.472 125.804C48.676 125.588 49 125.39 49.444 125.21L51.28 124.454C51.52 124.358 51.658 124.274 51.694 124.202C51.742 124.13 51.772 123.974 51.784 123.734L51.82 122.582C51.832 122.27 51.742 122 51.55 121.772C51.37 121.544 51.106 121.43 50.758 121.43C50.578 121.43 50.398 121.46 50.218 121.52C50.038 121.58 49.888 121.658 49.768 121.754C49.696 121.802 49.648 121.874 49.624 121.97C49.6 122.066 49.588 122.168 49.588 122.276C49.588 122.324 49.588 122.378 49.588 122.438C49.6 122.498 49.606 122.552 49.606 122.6C49.606 122.66 49.528 122.744 49.372 122.852C49.228 122.948 49.06 123.038 48.868 123.122C48.688 123.194 48.538 123.23 48.418 123.23C48.358 123.23 48.31 123.218 48.274 123.194C48.238 123.158 48.22 123.116 48.22 123.068C48.22 122.876 48.28 122.672 48.4 122.456C48.532 122.228 48.712 122.018 48.94 121.826C49.216 121.574 49.516 121.352 49.84 121.16C50.164 120.968 50.482 120.818 50.794 120.71C51.106 120.602 51.382 120.548 51.622 120.548C52.054 120.548 52.408 120.704 52.684 121.016C52.972 121.316 53.11 121.694 53.098 122.15L53.008 126.47C52.996 126.722 53.05 126.926 53.17 127.082C53.302 127.238 53.464 127.316 53.656 127.316C53.956 127.316 54.178 127.25 54.322 127.118C54.382 127.058 54.43 127.028 54.466 127.028C54.526 127.028 54.574 127.046 54.61 127.082C54.646 127.118 54.664 127.166 54.664 127.226C54.664 127.358 54.598 127.49 54.466 127.622C54.274 127.814 54.064 127.964 53.836 128.072C53.62 128.192 53.416 128.252 53.224 128.252C52.672 128.252 52.234 127.94 51.91 127.316H51.856C51.46 127.64 51.082 127.874 50.722 128.018C50.362 128.174 49.99 128.252 49.606 128.252ZM50.452 127.388C50.692 127.388 50.896 127.352 51.064 127.28C51.232 127.196 51.382 127.088 51.514 126.956C51.574 126.896 51.622 126.818 51.658 126.722C51.706 126.614 51.736 126.446 51.748 126.218L51.784 125.336C51.796 125.204 51.79 125.108 51.766 125.048C51.742 124.988 51.694 124.958 51.622 124.958C51.598 124.958 51.556 124.964 51.496 124.976C51.436 124.988 51.358 125.012 51.262 125.048C50.626 125.276 50.182 125.516 49.93 125.768C49.69 126.008 49.57 126.23 49.57 126.434C49.57 126.746 49.66 126.986 49.84 127.154C50.032 127.31 50.236 127.388 50.452 127.388ZM70.317 128.306C70.209 128.306 69.993 128.216 69.669 128.036C69.357 127.856 69.057 127.568 68.769 127.172C68.721 127.112 68.571 126.932 68.319 126.632C68.079 126.332 67.767 125.96 67.383 125.516C67.011 125.06 66.603 124.568 66.159 124.04C65.715 123.512 65.271 122.984 64.827 122.456C64.383 121.928 63.969 121.442 63.585 120.998C63.201 120.542 62.877 120.164 62.613 119.864C62.361 119.552 62.205 119.36 62.145 119.288C62.061 119.18 61.989 119.108 61.929 119.072C61.869 119.024 61.815 119 61.767 119C61.707 119 61.665 119.048 61.641 119.144C61.617 119.228 61.605 119.306 61.605 119.378C61.593 119.966 61.581 120.644 61.569 121.412C61.557 122.18 61.545 122.972 61.533 123.788C61.521 124.604 61.515 125.384 61.515 126.128C61.515 126.452 61.593 126.752 61.749 127.028C61.917 127.304 62.223 127.484 62.667 127.568C62.871 127.604 63.021 127.646 63.117 127.694C63.213 127.742 63.261 127.808 63.261 127.892C63.261 127.964 63.213 128.012 63.117 128.036C63.021 128.072 62.895 128.09 62.739 128.09C62.415 128.09 62.169 128.078 62.001 128.054C61.845 128.042 61.701 128.03 61.569 128.018C61.449 128.006 61.275 128 61.047 128C60.831 128 60.663 128.006 60.543 128.018C60.423 128.03 60.285 128.042 60.129 128.054C59.973 128.078 59.733 128.09 59.409 128.09C59.253 128.09 59.127 128.072 59.031 128.036C58.935 128.012 58.887 127.964 58.887 127.892C58.887 127.808 58.935 127.742 59.031 127.694C59.127 127.646 59.277 127.598 59.481 127.55C59.829 127.454 60.081 127.28 60.237 127.028C60.393 126.764 60.489 126.446 60.525 126.074C60.573 125.618 60.621 125.018 60.669 124.274C60.717 123.518 60.759 122.678 60.795 121.754C60.831 120.818 60.849 119.858 60.849 118.874C60.849 118.238 60.681 117.782 60.345 117.506C60.021 117.23 59.595 117.008 59.067 116.84C59.019 116.816 58.911 116.768 58.743 116.696C58.587 116.612 58.509 116.516 58.509 116.408C58.509 116.3 58.563 116.234 58.671 116.21C58.779 116.174 58.863 116.156 58.923 116.156C59.271 116.168 59.553 116.18 59.769 116.192C59.985 116.192 60.177 116.198 60.345 116.21C60.513 116.222 60.699 116.234 60.903 116.246C61.107 116.246 61.371 116.246 61.695 116.246C61.803 116.246 61.887 116.276 61.947 116.336C62.007 116.396 62.067 116.468 62.127 116.552C62.175 116.624 62.331 116.828 62.595 117.164C62.871 117.488 63.207 117.902 63.603 118.406C64.011 118.898 64.455 119.438 64.935 120.026C65.415 120.602 65.895 121.184 66.375 121.772C66.855 122.348 67.299 122.888 67.707 123.392C68.115 123.884 68.451 124.292 68.715 124.616C68.991 124.94 69.153 125.132 69.201 125.192C69.249 125.24 69.315 125.312 69.399 125.408C69.495 125.504 69.579 125.552 69.651 125.552C69.759 125.552 69.819 125.426 69.831 125.174C69.831 125.006 69.831 124.688 69.831 124.22C69.843 123.74 69.849 123.164 69.849 122.492C69.861 121.808 69.867 121.07 69.867 120.278C69.867 119.486 69.867 118.676 69.867 117.848C69.855 117.608 69.729 117.392 69.489 117.2C69.249 117.008 69.027 116.894 68.823 116.858C68.619 116.822 68.433 116.774 68.265 116.714C68.097 116.654 68.013 116.582 68.013 116.498C68.013 116.426 68.097 116.378 68.265 116.354C68.433 116.318 68.595 116.3 68.751 116.3C68.871 116.3 68.985 116.3 69.093 116.3C69.213 116.3 69.327 116.3 69.435 116.3C69.555 116.3 69.669 116.3 69.777 116.3C70.065 116.3 70.293 116.3 70.461 116.3C70.629 116.288 70.809 116.276 71.001 116.264C71.205 116.252 71.487 116.246 71.847 116.246C72.003 116.246 72.129 116.264 72.225 116.3C72.321 116.324 72.369 116.372 72.369 116.444C72.369 116.612 72.171 116.732 71.775 116.804C71.331 116.888 71.037 116.996 70.893 117.128C70.749 117.26 70.665 117.476 70.641 117.776C70.641 117.836 70.635 118.07 70.623 118.478C70.623 118.886 70.623 119.402 70.623 120.026C70.623 120.65 70.617 121.322 70.605 122.042C70.605 122.762 70.605 123.482 70.605 124.202C70.605 124.91 70.605 125.546 70.605 126.11C70.605 126.398 70.611 126.662 70.623 126.902C70.647 127.13 70.665 127.328 70.677 127.496C70.689 127.652 70.695 127.772 70.695 127.856C70.695 128.048 70.653 128.168 70.569 128.216C70.497 128.276 70.413 128.306 70.317 128.306ZM74.6548 128.252C74.4388 128.252 74.2168 128.168 73.9888 128C73.7728 127.832 73.5868 127.628 73.4308 127.388C73.2868 127.148 73.2148 126.92 73.2148 126.704C73.2148 126.32 73.3168 126.02 73.5208 125.804C73.7248 125.588 74.0488 125.39 74.4928 125.21L76.3288 124.454C76.5688 124.358 76.7068 124.274 76.7428 124.202C76.7908 124.13 76.8208 123.974 76.8328 123.734L76.8688 122.582C76.8808 122.27 76.7908 122 76.5988 121.772C76.4188 121.544 76.1548 121.43 75.8068 121.43C75.6268 121.43 75.4468 121.46 75.2668 121.52C75.0868 121.58 74.9368 121.658 74.8168 121.754C74.7448 121.802 74.6968 121.874 74.6728 121.97C74.6488 122.066 74.6368 122.168 74.6368 122.276C74.6368 122.324 74.6368 122.378 74.6368 122.438C74.6488 122.498 74.6548 122.552 74.6548 122.6C74.6548 122.66 74.5768 122.744 74.4208 122.852C74.2768 122.948 74.1088 123.038 73.9168 123.122C73.7368 123.194 73.5868 123.23 73.4668 123.23C73.4068 123.23 73.3588 123.218 73.3228 123.194C73.2868 123.158 73.2688 123.116 73.2688 123.068C73.2688 122.876 73.3288 122.672 73.4488 122.456C73.5808 122.228 73.7608 122.018 73.9888 121.826C74.2648 121.574 74.5648 121.352 74.8888 121.16C75.2128 120.968 75.5308 120.818 75.8428 120.71C76.1548 120.602 76.4308 120.548 76.6708 120.548C77.1028 120.548 77.4568 120.704 77.7328 121.016C78.0208 121.316 78.1588 121.694 78.1468 122.15L78.0568 126.47C78.0448 126.722 78.0988 126.926 78.2188 127.082C78.3508 127.238 78.5128 127.316 78.7048 127.316C79.0048 127.316 79.2268 127.25 79.3708 127.118C79.4308 127.058 79.4788 127.028 79.5148 127.028C79.5748 127.028 79.6228 127.046 79.6588 127.082C79.6948 127.118 79.7128 127.166 79.7128 127.226C79.7128 127.358 79.6468 127.49 79.5148 127.622C79.3228 127.814 79.1128 127.964 78.8848 128.072C78.6688 128.192 78.4648 128.252 78.2728 128.252C77.7208 128.252 77.2828 127.94 76.9588 127.316H76.9048C76.5088 127.64 76.1308 127.874 75.7708 128.018C75.4108 128.174 75.0388 128.252 74.6548 128.252ZM75.5008 127.388C75.7408 127.388 75.9448 127.352 76.1128 127.28C76.2808 127.196 76.4308 127.088 76.5628 126.956C76.6228 126.896 76.6708 126.818 76.7068 126.722C76.7548 126.614 76.7848 126.446 76.7968 126.218L76.8328 125.336C76.8448 125.204 76.8388 125.108 76.8148 125.048C76.7908 124.988 76.7428 124.958 76.6708 124.958C76.6468 124.958 76.6048 124.964 76.5448 124.976C76.4848 124.988 76.4068 125.012 76.3108 125.048C75.6748 125.276 75.2308 125.516 74.9788 125.768C74.7388 126.008 74.6188 126.23 74.6188 126.434C74.6188 126.746 74.7088 126.986 74.8888 127.154C75.0808 127.31 75.2848 127.388 75.5008 127.388ZM80.5303 128.054C80.4223 128.054 80.3323 128.036 80.2603 128C80.2003 127.976 80.1703 127.928 80.1703 127.856C80.1703 127.76 80.2063 127.7 80.2783 127.676C80.3503 127.64 80.4523 127.604 80.5843 127.568C80.7643 127.52 80.9383 127.454 81.1063 127.37C81.2743 127.286 81.3583 127.124 81.3583 126.884V123.014C81.3583 122.69 81.3223 122.414 81.2503 122.186C81.1903 121.958 81.0043 121.802 80.6923 121.718C80.6443 121.694 80.6023 121.67 80.5663 121.646C80.5303 121.61 80.5123 121.556 80.5123 121.484C80.5123 121.352 80.5663 121.28 80.6743 121.268C81.0943 121.16 81.4363 121.028 81.7003 120.872C81.9643 120.716 82.2223 120.542 82.4743 120.35C82.5103 120.326 82.5403 120.308 82.5643 120.296C82.6003 120.272 82.6363 120.26 82.6723 120.26C82.6963 120.26 82.7143 120.272 82.7263 120.296C82.7503 120.32 82.7623 120.35 82.7623 120.386C82.7623 120.47 82.7443 120.644 82.7083 120.908C82.6843 121.16 82.6723 121.37 82.6723 121.538C82.6723 121.586 82.6723 121.634 82.6723 121.682C82.6843 121.718 82.6963 121.742 82.7083 121.754C83.1283 121.358 83.5723 121.058 84.0403 120.854C84.5203 120.65 85.0423 120.548 85.6063 120.548C86.1943 120.548 86.6803 120.788 87.0643 121.268C87.4483 121.748 87.6403 122.342 87.6403 123.05V126.884C87.6403 127.124 87.7243 127.286 87.8923 127.37C88.0603 127.442 88.2343 127.508 88.4143 127.568C88.5103 127.604 88.6003 127.646 88.6843 127.694C88.7803 127.73 88.8283 127.796 88.8283 127.892C88.8283 127.964 88.7863 128.006 88.7023 128.018C88.6183 128.042 88.5403 128.054 88.4683 128.054C88.2283 128.054 88.0423 128.042 87.9103 128.018C87.7783 128.006 87.6523 127.994 87.5323 127.982C87.4123 127.97 87.2443 127.964 87.0283 127.964C86.8243 127.964 86.6563 127.97 86.5243 127.982C86.3923 127.994 86.2543 128.006 86.1103 128.018C85.9783 128.042 85.7923 128.054 85.5523 128.054C85.4923 128.054 85.4143 128.042 85.3183 128.018C85.2343 128.006 85.1923 127.964 85.1923 127.892C85.1923 127.796 85.2343 127.73 85.3183 127.694C85.4143 127.646 85.5103 127.604 85.6063 127.568C85.7863 127.508 85.9603 127.442 86.1283 127.37C86.2963 127.286 86.3803 127.124 86.3803 126.884V123.104C86.3803 122.576 86.2303 122.168 85.9303 121.88C85.6423 121.58 85.2523 121.424 84.7603 121.412C84.3283 121.412 83.9503 121.484 83.6263 121.628C83.3023 121.76 83.0143 121.928 82.7623 122.132C82.7143 122.18 82.6783 122.246 82.6543 122.33C82.6303 122.402 82.6183 122.474 82.6183 122.546V126.884C82.6183 127.124 82.7023 127.286 82.8703 127.37C83.0383 127.454 83.2123 127.52 83.3923 127.568C83.6683 127.64 83.8063 127.736 83.8063 127.856C83.8063 127.928 83.7763 127.976 83.7163 128C83.6563 128.036 83.5663 128.054 83.4463 128.054C83.2063 128.054 83.0143 128.042 82.8703 128.018C82.7383 128.006 82.6123 127.994 82.4923 127.982C82.3723 127.97 82.2043 127.964 81.9883 127.964C81.7843 127.964 81.6163 127.97 81.4843 127.982C81.3643 127.994 81.2323 128.006 81.0883 128.018C80.9563 128.042 80.7703 128.054 80.5303 128.054ZM92.758 133.22C91.738 133.22 90.928 133.022 90.328 132.626C89.74 132.242 89.446 131.72 89.446 131.06C89.446 130.748 89.494 130.484 89.59 130.268C89.686 130.052 89.836 129.866 90.04 129.71C90.208 129.566 90.43 129.38 90.706 129.152C90.994 128.936 91.288 128.708 91.588 128.468L92.344 128.504C91.768 128.876 91.366 129.23 91.138 129.566C90.91 129.902 90.796 130.31 90.796 130.79C90.796 131.27 91.006 131.672 91.426 131.996C91.858 132.332 92.386 132.5 93.01 132.5C93.718 132.5 94.288 132.338 94.72 132.014C95.02 131.786 95.254 131.486 95.422 131.114C95.59 130.754 95.674 130.37 95.674 129.962C95.674 129.698 95.578 129.476 95.386 129.296C95.206 129.128 94.918 128.99 94.522 128.882C94.126 128.774 93.61 128.702 92.974 128.666C91.846 128.582 91.06 128.432 90.616 128.216C90.184 128 89.968 127.664 89.968 127.208C89.968 127.088 89.998 126.98 90.058 126.884C90.13 126.776 90.238 126.662 90.382 126.542C90.658 126.326 90.862 126.17 90.994 126.074C91.126 125.966 91.222 125.876 91.282 125.804C91.354 125.732 91.42 125.642 91.48 125.534L92.092 125.84C91.828 125.936 91.606 126.068 91.426 126.236C91.246 126.392 91.156 126.536 91.156 126.668C91.156 126.836 91.246 126.986 91.426 127.118C91.606 127.238 91.87 127.334 92.218 127.406C92.566 127.478 92.992 127.532 93.496 127.568C94.6 127.628 95.422 127.808 95.962 128.108C96.502 128.408 96.772 128.834 96.772 129.386C96.772 129.854 96.652 130.31 96.412 130.754C96.184 131.21 95.878 131.624 95.494 131.996C95.11 132.368 94.678 132.662 94.198 132.878C93.73 133.106 93.25 133.22 92.758 133.22ZM92.974 125.462C93.43 125.462 93.808 125.234 94.108 124.778C94.408 124.31 94.558 123.734 94.558 123.05C94.558 122.702 94.474 122.378 94.306 122.078C94.15 121.766 93.94 121.52 93.676 121.34C93.424 121.148 93.148 121.052 92.848 121.052C92.572 121.052 92.308 121.154 92.056 121.358C91.816 121.55 91.618 121.802 91.462 122.114C91.318 122.426 91.246 122.768 91.246 123.14C91.246 123.56 91.324 123.95 91.48 124.31C91.636 124.658 91.846 124.94 92.11 125.156C92.374 125.36 92.662 125.462 92.974 125.462ZM92.866 126.092C92.374 126.092 91.906 125.966 91.462 125.714C91.018 125.462 90.652 125.132 90.364 124.724C90.088 124.304 89.95 123.848 89.95 123.356C89.95 122.792 90.094 122.3 90.382 121.88C90.682 121.448 91.072 121.112 91.552 120.872C92.032 120.632 92.542 120.512 93.082 120.512C93.43 120.512 93.73 120.56 93.982 120.656C94.246 120.74 94.504 120.818 94.756 120.89C95.044 120.974 95.272 121.028 95.44 121.052C95.608 121.064 95.782 121.07 95.962 121.07C96.106 121.07 96.286 121.064 96.502 121.052C96.718 121.028 96.868 121.016 96.952 121.016C97.108 121.016 97.186 121.106 97.186 121.286C97.186 121.394 97.126 121.508 97.006 121.628C96.946 121.688 96.898 121.718 96.862 121.718H96.376C96.052 121.718 95.872 121.766 95.836 121.862C95.824 121.91 95.806 121.982 95.782 122.078C95.77 122.162 95.758 122.258 95.746 122.366C95.734 122.474 95.728 122.582 95.728 122.69C95.728 123.302 95.596 123.866 95.332 124.382C95.068 124.898 94.72 125.312 94.288 125.624C93.856 125.936 93.382 126.092 92.866 126.092Z" fill="#1D3D6F"></path><defs><clipPath id="clip0_431_887"><rect width="65" height="86" fill="white" transform="translate(33)"></rect></clipPath></defs></svg>